<svg width="32" height="32" viewBox="0 0 32 32" fill="none" xmlns="http://www.w3.org/2000/svg">
<path fill-rule="evenodd" clip-rule="evenodd" d="M16.1181 5.33333C19.5959 5.33333 22.4999 7.98526 22.8147 11.4488L23.297 16.7535C23.3393 17.2192 23.6196 17.6298 24.0378 17.8389L24.0416 17.8408C24.978 18.309 25.5696 19.2662 25.5696 20.3131V20.7257C25.5696 22.068 24.4815 23.1561 23.1392 23.1561H19.0885V23.6962C19.0885 25.3367 17.7586 26.6667 16.1181 26.6667C14.4775 26.6667 13.1476 25.3367 13.1476 23.6962V23.1561H9.09701C7.75474 23.1561 6.66663 22.068 6.66663 20.7257V20.3131C6.66663 19.2662 7.25817 18.309 8.19462 17.8408L8.19841 17.8389C8.61665 17.6298 8.89691 17.2192 8.93924 16.7535L9.42149 11.4488C9.73635 7.98526 12.6403 5.33333 16.1181 5.33333ZM14.7679 23.1561V23.6962C14.7679 24.4419 15.3724 25.0464 16.1181 25.0464C16.8638 25.0464 17.4683 24.4419 17.4683 23.6962V23.1561H14.7679ZM16.1181 6.95347C13.4783 6.95347 11.2741 8.9664 11.0351 11.5953L10.5528 16.9001C10.4597 17.9245 9.84313 18.8279 8.92302 19.288C8.53169 19.4836 8.28689 19.8797 8.28689 20.313V20.7256C8.28689 21.173 8.64959 21.5357 9.09701 21.5357H23.1392C23.5866 21.5357 23.9493 21.173 23.9493 20.7256V20.313C23.9493 19.8797 23.7045 19.4836 23.317 19.2899C22.3931 18.8279 21.7765 17.9245 21.6834 16.9001L21.2011 11.5953C20.9621 8.9664 18.7579 6.95347 16.1181 6.95347Z" fill="#3D3D3D"/>
</svg>
