<svg width="32" height="32" viewBox="0 0 32 32" fill="none" xmlns="http://www.w3.org/2000/svg">
<path fill-rule="evenodd" clip-rule="evenodd" d="M5.33337 9C5.33337 8.44772 5.78109 8 6.33337 8H25.6667C26.219 8 26.6667 8.44772 26.6667 9V9.66667C26.6667 10.219 26.219 10.6667 25.6667 10.6667H6.33338C5.78109 10.6667 5.33337 10.219 5.33337 9.66667V9ZM5.33337 15.6667C5.33337 15.1144 5.78109 14.6667 6.33337 14.6667H25.6667C26.219 14.6667 26.6667 15.1144 26.6667 15.6667V16.3333C26.6667 16.8856 26.219 17.3333 25.6667 17.3333H6.33338C5.78109 17.3333 5.33337 16.8856 5.33337 16.3333V15.6667ZM6.33337 21.3333C5.78109 21.3333 5.33337 21.781 5.33337 22.3333V23C5.33337 23.5523 5.78109 24 6.33338 24H25.6667C26.219 24 26.6667 23.5523 26.6667 23V22.3333C26.6667 21.781 26.219 21.3333 25.6667 21.3333H6.33337Z" fill="#3D3D3D"/>
</svg>
