<svg width="32" height="32" viewBox="0 0 32 32" fill="none" xmlns="http://www.w3.org/2000/svg">
<path fill-rule="evenodd" clip-rule="evenodd" d="M26.6667 11.4218C26.6667 11.0566 26.5382 10.7406 26.2813 10.4737C26.0243 10.2069 25.7084 10.0735 25.3334 10.0735H23.0625C23.3542 9.79255 23.5868 9.45899 23.7605 9.07276C23.9341 8.68653 24.0209 8.25465 24.0209 7.77713C24.0209 7.18724 23.8334 6.63248 23.4584 6.11282C23.0834 5.59315 22.4306 5.33333 21.5 5.33333C20.8889 5.33333 20.3056 5.4808 19.75 5.77574C19.1945 6.07068 18.6806 6.42882 18.2084 6.85017C17.7361 7.27151 17.316 7.71743 16.948 8.18794C16.5799 8.65844 16.2778 9.08329 16.0417 9.4625C15.8056 9.08329 15.5 8.65844 15.125 8.18794C14.75 7.71743 14.323 7.27151 13.8438 6.85017C13.3646 6.42882 12.8438 6.07068 12.2813 5.77574C11.7188 5.4808 11.132 5.33333 10.5209 5.33333C9.59031 5.33333 8.93754 5.59315 8.56254 6.11282C8.18754 6.63248 8.00004 7.18724 8.00004 7.77713C8.00004 8.25465 8.08685 8.68653 8.26046 9.07276C8.43407 9.45899 8.67365 9.79958 8.97921 10.0945H6.66671C6.29171 10.0945 5.97574 10.2244 5.71879 10.4843C5.46184 10.7441 5.33337 11.0636 5.33337 11.4428V15.4667H6.68754V24.2517C6.68754 24.6169 6.81601 24.9329 7.07296 25.1997C7.3299 25.4666 7.64587 25.6 8.02087 25.6H24C24.375 25.6 24.691 25.4666 24.948 25.1997C25.2049 24.9329 25.3334 24.6169 25.3334 24.2517V15.4667H26.6667V11.4218ZM21.5 6.68147C21.9167 6.68147 22.2188 6.77276 22.4063 6.95534C22.5938 7.13793 22.6875 7.4118 22.6875 7.77696C22.6875 8.52134 22.3473 9.09015 21.6667 9.48341C20.9861 9.87667 20.257 10.0733 19.4792 10.0733H17.2292C17.7014 9.37105 18.323 8.63019 19.0938 7.8507C19.8646 7.07121 20.6667 6.68147 21.5 6.68147ZM10.5209 6.68147C11.3542 6.68147 12.1667 7.07121 12.9584 7.8507C13.75 8.63019 14.382 9.37105 14.8542 10.0733H12.6042C11.8264 10.0733 11.0868 9.87316 10.3855 9.47288C9.68406 9.0726 9.33337 8.50028 9.33337 7.7559C9.33337 7.39073 9.42712 7.12037 9.61462 6.94481C9.80212 6.76925 10.1042 6.68147 10.5209 6.68147ZM25.3334 14.1184H16.6667V11.4218H25.3334V14.1184ZM6.66671 11.4218H15.3334V14.1184H6.66671V11.4218ZM8.02087 15.4665H15.3334V24.2516H8.02087V15.4665ZM24 24.2516H16.6667V15.4665H24V24.2516Z" fill="#3D3D3D"/>
</svg>
